<svg width="44" height="28" viewBox="0 0 44 28" fill="none" xmlns="http://www.w3.org/2000/svg">
<path d="M0 28H-1V29H0V28ZM0 24V23H-1V24H0ZM8 24V25H9V24H8ZM8 8H9V7H8V8ZM4 8H3V9H4V8ZM4 4V3H3V4H4ZM8 4V5H9V4H8ZM8 0V-1H7V0H8ZM16 0H17V-1H16V0ZM16 24H15V25H16V24ZM24 24H25V23H24V24ZM24 28V29H25V28H24ZM1 28V24H-1V28H1ZM0 25H8V23H0V25ZM9 24V8H7V24H9ZM8 7H4V9H8V7ZM5 8V4H3V8H5ZM4 5H8V3H4V5ZM9 4V0H7V4H9ZM8 1H16V-1H8V1ZM15 0V24H17V0H15ZM16 25H24V23H16V25ZM23 24V28H25V24H23ZM24 27H0V29H24V27ZM36 28H35V29H36V28ZM36 20V19H35V20H36ZM44 20H45V19H44V20ZM44 28V29H45V28H44ZM37 28V20H35V28H37ZM36 21H44V19H36V21ZM43 20V28H45V20H43ZM44 27H36V29H44V27Z" fill="white"/>
</svg>
