<svg width="48" height="28" viewBox="0 0 48 28" fill="none" xmlns="http://www.w3.org/2000/svg">
<path d="M4 28H3V29H4V28ZM4 24H5V23H4V24ZM0 24H-1V25H0V24ZM0 20V19H-1V20H0ZM8 20H9V19H8V20ZM8 24H7V25H8V24ZM20 24V25H21V24H20ZM20 16H21V15H20V16ZM8 16H7V17H8V16ZM8 12V11H7V12H8ZM12 12V13H13V12H12ZM12 8V7H11V8H12ZM16 8V9H17V8H16ZM16 4H17V3H16V4ZM4 4H3V5H4V4ZM4 0V-1H3V0H4ZM28 0H29V-1H28V0ZM28 4V5H29V4H28ZM24 4V3H23V4H24ZM24 8V9H25V8H24ZM20 8V7H19V8H20ZM20 12H19V13H20V12ZM24 12H25V11H24V12ZM24 16H23V17H24V16ZM28 16H29V15H28V16ZM28 24V25H29V24H28ZM24 24V23H23V24H24ZM24 28V29H25V28H24ZM5 28V24H3V28H5ZM4 23H0V25H4V23ZM1 24V20H-1V24H1ZM0 21H8V19H0V21ZM7 20V24H9V20H7ZM8 25H20V23H8V25ZM21 24V16H19V24H21ZM20 15H8V17H20V15ZM9 16V12H7V16H9ZM8 13H12V11H8V13ZM13 12V8H11V12H13ZM12 9H16V7H12V9ZM17 8V4H15V8H17ZM16 3H4V5H16V3ZM5 4V0H3V4H5ZM4 1H28V-1H4V1ZM27 0V4H29V0H27ZM28 3H24V5H28V3ZM23 4V8H25V4H23ZM24 7H20V9H24V7ZM19 8V12H21V8H19ZM20 13H24V11H20V13ZM23 12V16H25V12H23ZM24 17H28V15H24V17ZM27 16V24H29V16H27ZM28 23H24V25H28V23ZM23 24V28H25V24H23ZM24 27H4V29H24V27ZM40 28H39V29H40V28ZM40 20V19H39V20H40ZM48 20H49V19H48V20ZM48 28V29H49V28H48ZM41 28V20H39V28H41ZM40 21H48V19H40V21ZM47 20V28H49V20H47ZM48 27H40V29H48V27Z" fill="white"/>
</svg>
