<svg width="48" height="28" viewBox="0 0 48 28" fill="none" xmlns="http://www.w3.org/2000/svg">
<path d="M0 28H-1V29H0V28ZM0 20V19H-1V20H0ZM4 20V21H5V20H4ZM4 16V15H3V16H4ZM8 16V17H9V16H8ZM8 12V11H7V12H8ZM16 12V13H17V12H16ZM16 8V7H15V8H16ZM20 8V9H21V8H20ZM20 4H21V3H20V4ZM8 4V3H7V4H8ZM8 8V9H9V8H8ZM0 8H-1V9H0V8ZM0 4V3H-1V4H0ZM4 4V5H5V4H4ZM4 0V-1H3V0H4ZM24 0H25V-1H24V0ZM24 4H23V5H24V4ZM28 4H29V3H28V4ZM28 12V13H29V12H28ZM24 12V11H23V12H24ZM24 16V17H25V16H24ZM20 16V15H19V16H20ZM20 20V21H21V20H20ZM12 20V19H11V20H12ZM12 24H11V25H12V24ZM28 24H29V23H28V24ZM28 28V29H29V28H28ZM1 28V20H-1V28H1ZM0 21H4V19H0V21ZM5 20V16H3V20H5ZM4 17H8V15H4V17ZM9 16V12H7V16H9ZM8 13H16V11H8V13ZM17 12V8H15V12H17ZM16 9H20V7H16V9ZM21 8V4H19V8H21ZM20 3H8V5H20V3ZM7 4V8H9V4H7ZM8 7H0V9H8V7ZM1 8V4H-1V8H1ZM0 5H4V3H0V5ZM5 4V0H3V4H5ZM4 1H24V-1H4V1ZM23 0V4H25V0H23ZM24 5H28V3H24V5ZM27 4V12H29V4H27ZM28 11H24V13H28V11ZM23 12V16H25V12H23ZM24 15H20V17H24V15ZM19 16V20H21V16H19ZM20 19H12V21H20V19ZM11 20V24H13V20H11ZM12 25H28V23H12V25ZM27 24V28H29V24H27ZM28 27H0V29H28V27ZM40 28H39V29H40V28ZM40 20V19H39V20H40ZM48 20H49V19H48V20ZM48 28V29H49V28H48ZM41 28V20H39V28H41ZM40 21H48V19H40V21ZM47 20V28H49V20H47ZM48 27H40V29H48V27Z" fill="white"/>
</svg>
